%
M48
M72
T01C0.0118
T02C0.0315
T03C0.0320
T04C0.0354
T05C0.0394
T06C0.1260
%
T01
X12097Y2099
X15897Y2887
X12550Y3497
X12235Y3911
X11310Y4639
X11822Y4816
X9322Y4816
X8613Y4934
X9735Y6371
X9125Y6647
X8397Y6548
X10877Y6332
X11428Y6450
X12353Y6351
X11212Y7060
X8456Y7985
X7905Y8438
X8180Y8891
X8849Y8851
X10385Y9088
X13397Y10072
X14578Y9698
X17157Y10426
X18731Y10820
X20050Y10328
X21290Y10584
X20838Y11036
X22826Y11470
X22924Y10800
X23436Y10859
X24657Y10111
X28633Y10407
X29283Y10131
X29853Y10131
X30365Y10131
X30838Y10367
X31783Y10938
X34755Y11351
X34912Y12080
X37176Y12474
X38495Y12159
X39204Y11411
X39814Y11489
X40326Y11470
X42905Y10662
X42196Y10426
X41389Y10308
X37964Y9678
X39873Y9088
X40483Y8851
X41192Y8891
X43633Y8989
X46251Y9816
X46546Y10348
X45956Y10505
X52078Y10328
X53574Y10328
X55523Y9521
X54932Y9383
X52137Y8871
X51842Y8438
X52727Y8281
X52708Y7159
X50975Y6529
X50247Y6647
X50523Y6174
X51743Y6233
X52255Y6174
X48259Y6351
X43357Y6351
X41428Y6371
X39617Y6391
X38771Y6076
X37668Y6430
X38042Y6804
X38180Y7336
X39401Y7375
X37688Y8911
X35798Y9599
X35208Y9599
X32983Y9599
X30306Y9029
X29676Y9068
X28436Y8792
X30227Y8202
X31034Y8300
X29440Y7788
X30208Y7474
X30779Y7651
X31428Y7316
X28692Y8162
X28318Y7788
X26428Y8300
X26468Y8812
X23849Y8044
X24912Y7690
X25424Y7552
X25936Y7434
X25562Y6666
X26861Y6588
X24597Y6096
X22590Y6785
X21920Y6371
X21231Y6450
X20680Y7218
X17314Y6962
X20680Y8222
X19735Y8556
X21979Y9088
X22393Y8261
X17275Y9718
X13968Y11233
X10129Y11292
X8613Y10525
X3338Y9875
X2609Y11332
X1507Y11332
X6349Y12296
X7117Y12021
X12176Y14245
X18790Y13970
X18731Y12985
X20601Y12178
X21802Y12474
X20601Y11666
X28141Y11430
X32058Y12336
X31527Y12867
X31645Y14462
X41113Y13871
X45050Y12296
X57235Y10485
X41625Y5111
X44420Y4737
X44046Y4383
X41409Y3792
X41507Y2887
X37491Y3162
X35956Y3064
X34538Y3143
X36684Y3792
X29696Y4501
X28928Y4501
X29283Y4127
X28968Y5564
X28456Y5564
X29676Y5564
X31428Y6253
X30877Y6312
X22471Y4796
X33830Y1351
X34479Y1076
X32708Y505
X36645Y1666
X50070Y4639
X51507Y4855
X52176Y4914
X52708Y4048
X50306Y3851
X50956Y3202
X56960Y3143
T02
X58483Y3277
X56444Y2269
X55444Y2269
X54444Y2269
X53444Y2269
X52444Y2269
X51444Y2269
X50444Y2269
X49444Y2269
X41377Y2269
X40377Y2269
X39377Y2269
X38377Y2269
X37377Y2269
X36377Y2269
X35377Y2269
X34377Y2269
X26326Y2257
X25326Y2257
X24326Y2257
X23326Y2257
X22326Y2257
X21326Y2257
X20326Y2257
X19326Y2257
X11298Y2257
X10298Y2257
X9298Y2257
X8298Y2257
X7298Y2257
X6298Y2257
X5298Y2257
X4298Y2257
X4298Y13257
X5298Y13257
X6298Y13257
X7298Y13257
X8298Y13257
X9298Y13257
X10298Y13257
X11298Y13257
X19326Y13257
X20326Y13257
X21326Y13257
X22326Y13257
X23326Y13257
X24326Y13257
X25326Y13257
X26326Y13257
X28149Y14033
X29330Y14033
X34377Y13269
X35377Y13269
X36377Y13269
X37377Y13269
X38377Y13269
X39377Y13269
X40377Y13269
X41377Y13269
X49444Y13269
X50444Y13269
X51444Y13269
X52444Y13269
X53444Y13269
X54444Y13269
X55444Y13269
X56444Y13269
X58483Y4851
T03
X35381Y7682
X34381Y7682
X31217Y2985
X29317Y2985
T04
X2452Y4521
X2452Y6253
T05
X58227Y10048
X59212Y10048
X59212Y11033
X58227Y11033
X58227Y12017
X59212Y12017
T06
X1468Y1450
X1468Y14048
X59342Y14048
X59342Y1450
M30
