G75*
G70*
%OFA0B0*%
%FSLAX24Y24*%
%IPPOS*%
%LPD*%
%AMOC8*
5,1,8,0,0,1.08239X$1,22.5*
%
%ADD10C,0.0000*%
D10*
X000286Y000269D02*
X000286Y015229D01*
X060523Y015229D01*
X060523Y000269D01*
X000286Y000269D01*
X000838Y001450D02*
X000840Y001500D01*
X000846Y001550D01*
X000856Y001599D01*
X000870Y001647D01*
X000887Y001694D01*
X000908Y001739D01*
X000933Y001783D01*
X000961Y001824D01*
X000993Y001863D01*
X001027Y001900D01*
X001064Y001934D01*
X001104Y001964D01*
X001146Y001991D01*
X001190Y002015D01*
X001236Y002036D01*
X001283Y002052D01*
X001331Y002065D01*
X001381Y002074D01*
X001430Y002079D01*
X001481Y002080D01*
X001531Y002077D01*
X001580Y002070D01*
X001629Y002059D01*
X001677Y002044D01*
X001723Y002026D01*
X001768Y002004D01*
X001811Y001978D01*
X001852Y001949D01*
X001891Y001917D01*
X001927Y001882D01*
X001959Y001844D01*
X001989Y001804D01*
X002016Y001761D01*
X002039Y001717D01*
X002058Y001671D01*
X002074Y001623D01*
X002086Y001574D01*
X002094Y001525D01*
X002098Y001475D01*
X002098Y001425D01*
X002094Y001375D01*
X002086Y001326D01*
X002074Y001277D01*
X002058Y001229D01*
X002039Y001183D01*
X002016Y001139D01*
X001989Y001096D01*
X001959Y001056D01*
X001927Y001018D01*
X001891Y000983D01*
X001852Y000951D01*
X001811Y000922D01*
X001768Y000896D01*
X001723Y000874D01*
X001677Y000856D01*
X001629Y000841D01*
X001580Y000830D01*
X001531Y000823D01*
X001481Y000820D01*
X001430Y000821D01*
X001381Y000826D01*
X001331Y000835D01*
X001283Y000848D01*
X001236Y000864D01*
X001190Y000885D01*
X001146Y000909D01*
X001104Y000936D01*
X001064Y000966D01*
X001027Y001000D01*
X000993Y001037D01*
X000961Y001076D01*
X000933Y001117D01*
X000908Y001161D01*
X000887Y001206D01*
X000870Y001253D01*
X000856Y001301D01*
X000846Y001350D01*
X000840Y001400D01*
X000838Y001450D01*
X002275Y004521D02*
X002277Y004547D01*
X002283Y004573D01*
X002293Y004598D01*
X002306Y004621D01*
X002322Y004641D01*
X002342Y004659D01*
X002364Y004674D01*
X002387Y004686D01*
X002413Y004694D01*
X002439Y004698D01*
X002465Y004698D01*
X002491Y004694D01*
X002517Y004686D01*
X002541Y004674D01*
X002562Y004659D01*
X002582Y004641D01*
X002598Y004621D01*
X002611Y004598D01*
X002621Y004573D01*
X002627Y004547D01*
X002629Y004521D01*
X002627Y004495D01*
X002621Y004469D01*
X002611Y004444D01*
X002598Y004421D01*
X002582Y004401D01*
X002562Y004383D01*
X002540Y004368D01*
X002517Y004356D01*
X002491Y004348D01*
X002465Y004344D01*
X002439Y004344D01*
X002413Y004348D01*
X002387Y004356D01*
X002363Y004368D01*
X002342Y004383D01*
X002322Y004401D01*
X002306Y004421D01*
X002293Y004444D01*
X002283Y004469D01*
X002277Y004495D01*
X002275Y004521D01*
X002275Y006253D02*
X002277Y006279D01*
X002283Y006305D01*
X002293Y006330D01*
X002306Y006353D01*
X002322Y006373D01*
X002342Y006391D01*
X002364Y006406D01*
X002387Y006418D01*
X002413Y006426D01*
X002439Y006430D01*
X002465Y006430D01*
X002491Y006426D01*
X002517Y006418D01*
X002541Y006406D01*
X002562Y006391D01*
X002582Y006373D01*
X002598Y006353D01*
X002611Y006330D01*
X002621Y006305D01*
X002627Y006279D01*
X002629Y006253D01*
X002627Y006227D01*
X002621Y006201D01*
X002611Y006176D01*
X002598Y006153D01*
X002582Y006133D01*
X002562Y006115D01*
X002540Y006100D01*
X002517Y006088D01*
X002491Y006080D01*
X002465Y006076D01*
X002439Y006076D01*
X002413Y006080D01*
X002387Y006088D01*
X002363Y006100D01*
X002342Y006115D01*
X002322Y006133D01*
X002306Y006153D01*
X002293Y006176D01*
X002283Y006201D01*
X002277Y006227D01*
X002275Y006253D01*
X000838Y014048D02*
X000840Y014098D01*
X000846Y014148D01*
X000856Y014197D01*
X000870Y014245D01*
X000887Y014292D01*
X000908Y014337D01*
X000933Y014381D01*
X000961Y014422D01*
X000993Y014461D01*
X001027Y014498D01*
X001064Y014532D01*
X001104Y014562D01*
X001146Y014589D01*
X001190Y014613D01*
X001236Y014634D01*
X001283Y014650D01*
X001331Y014663D01*
X001381Y014672D01*
X001430Y014677D01*
X001481Y014678D01*
X001531Y014675D01*
X001580Y014668D01*
X001629Y014657D01*
X001677Y014642D01*
X001723Y014624D01*
X001768Y014602D01*
X001811Y014576D01*
X001852Y014547D01*
X001891Y014515D01*
X001927Y014480D01*
X001959Y014442D01*
X001989Y014402D01*
X002016Y014359D01*
X002039Y014315D01*
X002058Y014269D01*
X002074Y014221D01*
X002086Y014172D01*
X002094Y014123D01*
X002098Y014073D01*
X002098Y014023D01*
X002094Y013973D01*
X002086Y013924D01*
X002074Y013875D01*
X002058Y013827D01*
X002039Y013781D01*
X002016Y013737D01*
X001989Y013694D01*
X001959Y013654D01*
X001927Y013616D01*
X001891Y013581D01*
X001852Y013549D01*
X001811Y013520D01*
X001768Y013494D01*
X001723Y013472D01*
X001677Y013454D01*
X001629Y013439D01*
X001580Y013428D01*
X001531Y013421D01*
X001481Y013418D01*
X001430Y013419D01*
X001381Y013424D01*
X001331Y013433D01*
X001283Y013446D01*
X001236Y013462D01*
X001190Y013483D01*
X001146Y013507D01*
X001104Y013534D01*
X001064Y013564D01*
X001027Y013598D01*
X000993Y013635D01*
X000961Y013674D01*
X000933Y013715D01*
X000908Y013759D01*
X000887Y013804D01*
X000870Y013851D01*
X000856Y013899D01*
X000846Y013948D01*
X000840Y013998D01*
X000838Y014048D01*
X058712Y014048D02*
X058714Y014098D01*
X058720Y014148D01*
X058730Y014197D01*
X058744Y014245D01*
X058761Y014292D01*
X058782Y014337D01*
X058807Y014381D01*
X058835Y014422D01*
X058867Y014461D01*
X058901Y014498D01*
X058938Y014532D01*
X058978Y014562D01*
X059020Y014589D01*
X059064Y014613D01*
X059110Y014634D01*
X059157Y014650D01*
X059205Y014663D01*
X059255Y014672D01*
X059304Y014677D01*
X059355Y014678D01*
X059405Y014675D01*
X059454Y014668D01*
X059503Y014657D01*
X059551Y014642D01*
X059597Y014624D01*
X059642Y014602D01*
X059685Y014576D01*
X059726Y014547D01*
X059765Y014515D01*
X059801Y014480D01*
X059833Y014442D01*
X059863Y014402D01*
X059890Y014359D01*
X059913Y014315D01*
X059932Y014269D01*
X059948Y014221D01*
X059960Y014172D01*
X059968Y014123D01*
X059972Y014073D01*
X059972Y014023D01*
X059968Y013973D01*
X059960Y013924D01*
X059948Y013875D01*
X059932Y013827D01*
X059913Y013781D01*
X059890Y013737D01*
X059863Y013694D01*
X059833Y013654D01*
X059801Y013616D01*
X059765Y013581D01*
X059726Y013549D01*
X059685Y013520D01*
X059642Y013494D01*
X059597Y013472D01*
X059551Y013454D01*
X059503Y013439D01*
X059454Y013428D01*
X059405Y013421D01*
X059355Y013418D01*
X059304Y013419D01*
X059255Y013424D01*
X059205Y013433D01*
X059157Y013446D01*
X059110Y013462D01*
X059064Y013483D01*
X059020Y013507D01*
X058978Y013534D01*
X058938Y013564D01*
X058901Y013598D01*
X058867Y013635D01*
X058835Y013674D01*
X058807Y013715D01*
X058782Y013759D01*
X058761Y013804D01*
X058744Y013851D01*
X058730Y013899D01*
X058720Y013948D01*
X058714Y013998D01*
X058712Y014048D01*
X058712Y001450D02*
X058714Y001500D01*
X058720Y001550D01*
X058730Y001599D01*
X058744Y001647D01*
X058761Y001694D01*
X058782Y001739D01*
X058807Y001783D01*
X058835Y001824D01*
X058867Y001863D01*
X058901Y001900D01*
X058938Y001934D01*
X058978Y001964D01*
X059020Y001991D01*
X059064Y002015D01*
X059110Y002036D01*
X059157Y002052D01*
X059205Y002065D01*
X059255Y002074D01*
X059304Y002079D01*
X059355Y002080D01*
X059405Y002077D01*
X059454Y002070D01*
X059503Y002059D01*
X059551Y002044D01*
X059597Y002026D01*
X059642Y002004D01*
X059685Y001978D01*
X059726Y001949D01*
X059765Y001917D01*
X059801Y001882D01*
X059833Y001844D01*
X059863Y001804D01*
X059890Y001761D01*
X059913Y001717D01*
X059932Y001671D01*
X059948Y001623D01*
X059960Y001574D01*
X059968Y001525D01*
X059972Y001475D01*
X059972Y001425D01*
X059968Y001375D01*
X059960Y001326D01*
X059948Y001277D01*
X059932Y001229D01*
X059913Y001183D01*
X059890Y001139D01*
X059863Y001096D01*
X059833Y001056D01*
X059801Y001018D01*
X059765Y000983D01*
X059726Y000951D01*
X059685Y000922D01*
X059642Y000896D01*
X059597Y000874D01*
X059551Y000856D01*
X059503Y000841D01*
X059454Y000830D01*
X059405Y000823D01*
X059355Y000820D01*
X059304Y000821D01*
X059255Y000826D01*
X059205Y000835D01*
X059157Y000848D01*
X059110Y000864D01*
X059064Y000885D01*
X059020Y000909D01*
X058978Y000936D01*
X058938Y000966D01*
X058901Y001000D01*
X058867Y001037D01*
X058835Y001076D01*
X058807Y001117D01*
X058782Y001161D01*
X058761Y001206D01*
X058744Y001253D01*
X058730Y001301D01*
X058720Y001350D01*
X058714Y001400D01*
X058712Y001450D01*
M02*
